<mxfile host="app.diagrams.net" modified="2023-01-23T14:53:40.967Z" agent="5.0 (Macintosh)" etag="DWDhgqxlVWb_fnT-8Wsb" version="20.8.10" type="github">
  <diagram name="Page-1" id="822b0af5-4adb-64df-f703-e8dfc1f81529">
    <mxGraphModel dx="3488" dy="2384" grid="1" gridSize="10" guides="1" tooltips="1" connect="1" arrows="1" fold="1" page="1" pageScale="1" pageWidth="1100" pageHeight="850" background="none" math="0" shadow="0">
      <root>
        <mxCell id="0" />
        <mxCell id="1" parent="0" />
        <mxCell id="Qd_EPmQraksvdraPAf4v-13" value="" style="verticalLabelPosition=bottom;sketch=0;aspect=fixed;html=1;verticalAlign=top;strokeColor=none;align=center;outlineConnect=0;shape=mxgraph.citrix.router;" vertex="1" parent="1">
          <mxGeometry x="2742.5" y="-148.5" width="55" height="36.5" as="geometry" />
        </mxCell>
        <mxCell id="Qd_EPmQraksvdraPAf4v-14" value="FMT(R1" style="text;strokeColor=none;align=center;fillColor=none;html=1;verticalAlign=middle;whiteSpace=wrap;rounded=0;" vertex="1" parent="1">
          <mxGeometry x="2740" y="-118.5" width="60" height="30" as="geometry" />
        </mxCell>
        <mxCell id="Qd_EPmQraksvdraPAf4v-15" value="" style="verticalLabelPosition=bottom;sketch=0;aspect=fixed;html=1;verticalAlign=top;strokeColor=none;align=center;outlineConnect=0;shape=mxgraph.citrix.router;" vertex="1" parent="1">
          <mxGeometry x="2742.5" y="-78.5" width="55" height="36.5" as="geometry" />
        </mxCell>
        <mxCell id="Qd_EPmQraksvdraPAf4v-16" value="&lt;div&gt;FMT(Node1&lt;/div&gt;" style="text;strokeColor=none;align=center;fillColor=none;html=1;verticalAlign=middle;whiteSpace=wrap;rounded=0;" vertex="1" parent="1">
          <mxGeometry x="2742.5" y="-42" width="60" height="30" as="geometry" />
        </mxCell>
        <mxCell id="Qd_EPmQraksvdraPAf4v-17" value="" style="verticalLabelPosition=bottom;sketch=0;aspect=fixed;html=1;verticalAlign=top;strokeColor=none;align=center;outlineConnect=0;shape=mxgraph.citrix.router;" vertex="1" parent="1">
          <mxGeometry x="2740" y="-248.5" width="55" height="36.5" as="geometry" />
        </mxCell>
        <mxCell id="Qd_EPmQraksvdraPAf4v-18" value="&lt;div&gt;SEA(R1&lt;/div&gt;" style="text;strokeColor=none;align=center;fillColor=none;html=1;verticalAlign=middle;whiteSpace=wrap;rounded=0;" vertex="1" parent="1">
          <mxGeometry x="2740" y="-218.5" width="60" height="36.5" as="geometry" />
        </mxCell>
        <mxCell id="Qd_EPmQraksvdraPAf4v-19" value="" style="verticalLabelPosition=bottom;sketch=0;aspect=fixed;html=1;verticalAlign=top;strokeColor=none;align=center;outlineConnect=0;shape=mxgraph.citrix.router;" vertex="1" parent="1">
          <mxGeometry x="2852.5" y="-78.5" width="55" height="36.5" as="geometry" />
        </mxCell>
        <mxCell id="Qd_EPmQraksvdraPAf4v-20" value="SJC" style="text;strokeColor=none;align=center;fillColor=none;html=1;verticalAlign=middle;whiteSpace=wrap;rounded=0;" vertex="1" parent="1">
          <mxGeometry x="2852.5" y="-38.5" width="60" height="30" as="geometry" />
        </mxCell>
        <mxCell id="Qd_EPmQraksvdraPAf4v-47" value="" style="verticalLabelPosition=bottom;sketch=0;aspect=fixed;html=1;verticalAlign=top;strokeColor=none;align=center;outlineConnect=0;shape=mxgraph.citrix.router;" vertex="1" parent="1">
          <mxGeometry x="702.5" y="1340" width="55" height="36.5" as="geometry" />
        </mxCell>
        <mxCell id="Qd_EPmQraksvdraPAf4v-48" value="SGP(Node1" style="text;strokeColor=none;align=center;fillColor=none;html=1;verticalAlign=middle;whiteSpace=wrap;rounded=0;" vertex="1" parent="1">
          <mxGeometry x="700" y="1376.5" width="60" height="30" as="geometry" />
        </mxCell>
        <mxCell id="Qd_EPmQraksvdraPAf4v-49" value="" style="verticalLabelPosition=bottom;sketch=0;aspect=fixed;html=1;verticalAlign=top;strokeColor=none;align=center;outlineConnect=0;shape=mxgraph.citrix.router;" vertex="1" parent="1">
          <mxGeometry x="629.5" y="960" width="55" height="36.5" as="geometry" />
        </mxCell>
        <mxCell id="Qd_EPmQraksvdraPAf4v-50" value="HK(R1" style="text;strokeColor=none;align=center;fillColor=none;html=1;verticalAlign=middle;whiteSpace=wrap;rounded=0;" vertex="1" parent="1">
          <mxGeometry x="629.5" y="996.5" width="60" height="30" as="geometry" />
        </mxCell>
        <mxCell id="Qd_EPmQraksvdraPAf4v-51" value="" style="verticalLabelPosition=bottom;sketch=0;aspect=fixed;html=1;verticalAlign=top;strokeColor=none;align=center;outlineConnect=0;shape=mxgraph.citrix.router;" vertex="1" parent="1">
          <mxGeometry x="995" y="790" width="55" height="36.5" as="geometry" />
        </mxCell>
        <mxCell id="Qd_EPmQraksvdraPAf4v-52" value="TPE(R1" style="text;strokeColor=none;align=center;fillColor=none;html=1;verticalAlign=middle;whiteSpace=wrap;rounded=0;" vertex="1" parent="1">
          <mxGeometry x="990" y="820" width="60" height="30" as="geometry" />
        </mxCell>
        <mxCell id="Qd_EPmQraksvdraPAf4v-53" value="" style="verticalLabelPosition=bottom;sketch=0;aspect=fixed;html=1;verticalAlign=top;strokeColor=none;align=center;outlineConnect=0;shape=mxgraph.citrix.router;" vertex="1" parent="1">
          <mxGeometry x="745" y="837" width="55" height="36.5" as="geometry" />
        </mxCell>
        <mxCell id="Qd_EPmQraksvdraPAf4v-54" value="CAN(node" style="text;strokeColor=none;align=center;fillColor=none;html=1;verticalAlign=middle;whiteSpace=wrap;rounded=0;" vertex="1" parent="1">
          <mxGeometry x="740" y="863.5" width="60" height="30" as="geometry" />
        </mxCell>
        <mxCell id="Qd_EPmQraksvdraPAf4v-55" value="" style="verticalLabelPosition=bottom;sketch=0;aspect=fixed;html=1;verticalAlign=top;strokeColor=none;align=center;outlineConnect=0;shape=mxgraph.citrix.router;" vertex="1" parent="1">
          <mxGeometry x="580" y="480" width="55" height="36.5" as="geometry" />
        </mxCell>
        <mxCell id="Qd_EPmQraksvdraPAf4v-56" value="CSX(IX" style="text;strokeColor=none;align=center;fillColor=none;html=1;verticalAlign=middle;whiteSpace=wrap;rounded=0;" vertex="1" parent="1">
          <mxGeometry x="577.5" y="516.5" width="60" height="30" as="geometry" />
        </mxCell>
        <mxCell id="Qd_EPmQraksvdraPAf4v-57" value="" style="verticalLabelPosition=bottom;sketch=0;aspect=fixed;html=1;verticalAlign=top;strokeColor=none;align=center;outlineConnect=0;shape=mxgraph.citrix.router;" vertex="1" parent="1">
          <mxGeometry x="575" y="340" width="55" height="36.5" as="geometry" />
        </mxCell>
        <mxCell id="Qd_EPmQraksvdraPAf4v-58" value="&lt;div&gt;whn(node&lt;/div&gt;" style="text;strokeColor=none;align=center;fillColor=none;html=1;verticalAlign=middle;whiteSpace=wrap;rounded=0;" vertex="1" parent="1">
          <mxGeometry x="570" y="375" width="60" height="50" as="geometry" />
        </mxCell>
        <mxCell id="Qd_EPmQraksvdraPAf4v-59" value="" style="verticalLabelPosition=bottom;sketch=0;aspect=fixed;html=1;verticalAlign=top;strokeColor=none;align=center;outlineConnect=0;shape=mxgraph.citrix.router;" vertex="1" parent="1">
          <mxGeometry x="870" y="250" width="55" height="36.5" as="geometry" />
        </mxCell>
        <mxCell id="Qd_EPmQraksvdraPAf4v-61" value="sha(node" style="text;strokeColor=none;align=center;fillColor=none;html=1;verticalAlign=middle;whiteSpace=wrap;rounded=0;" vertex="1" parent="1">
          <mxGeometry x="870" y="286.5" width="60" height="22.25" as="geometry" />
        </mxCell>
        <mxCell id="Qd_EPmQraksvdraPAf4v-69" value="" style="verticalLabelPosition=bottom;sketch=0;aspect=fixed;html=1;verticalAlign=top;strokeColor=none;align=center;outlineConnect=0;shape=mxgraph.citrix.router;" vertex="1" parent="1">
          <mxGeometry x="-430" y="-550" width="84.07" height="55.79" as="geometry" />
        </mxCell>
        <mxCell id="Qd_EPmQraksvdraPAf4v-70" value="FRA(R1" style="text;strokeColor=none;align=center;fillColor=none;html=1;verticalAlign=middle;whiteSpace=wrap;rounded=0;" vertex="1" parent="1">
          <mxGeometry x="-410.96000000000004" y="-500" width="60" height="10" as="geometry" />
        </mxCell>
        <mxCell id="Qd_EPmQraksvdraPAf4v-71" value="" style="verticalLabelPosition=bottom;sketch=0;aspect=fixed;html=1;verticalAlign=top;strokeColor=none;align=center;outlineConnect=0;shape=mxgraph.citrix.globe;" vertex="1" parent="1">
          <mxGeometry x="-420" y="-450" width="78.5" height="75" as="geometry" />
        </mxCell>
        <mxCell id="Qd_EPmQraksvdraPAf4v-72" value="Web Node" style="text;strokeColor=none;align=center;fillColor=none;html=1;verticalAlign=middle;whiteSpace=wrap;rounded=0;" vertex="1" parent="1">
          <mxGeometry x="-410.96" y="-375" width="60" height="30" as="geometry" />
        </mxCell>
        <mxCell id="Qd_EPmQraksvdraPAf4v-73" value="" style="shape=link;html=1;rounded=0;" edge="1" parent="1" target="Qd_EPmQraksvdraPAf4v-71">
          <mxGeometry width="100" relative="1" as="geometry">
            <mxPoint x="-386" y="-510" as="sourcePoint" />
            <mxPoint x="-286" y="-510" as="targetPoint" />
          </mxGeometry>
        </mxCell>
        <mxCell id="Qd_EPmQraksvdraPAf4v-74" value="" style="verticalLabelPosition=bottom;sketch=0;aspect=fixed;html=1;verticalAlign=top;strokeColor=none;align=center;outlineConnect=0;shape=mxgraph.citrix.router;" vertex="1" parent="1">
          <mxGeometry x="-276" y="-550" width="67.81" height="45" as="geometry" />
        </mxCell>
        <mxCell id="Qd_EPmQraksvdraPAf4v-75" value="AMS(R2" style="text;strokeColor=none;align=center;fillColor=none;html=1;verticalAlign=middle;whiteSpace=wrap;rounded=0;" vertex="1" parent="1">
          <mxGeometry x="-276" y="-505" width="60" height="30" as="geometry" />
        </mxCell>
        <mxCell id="Qd_EPmQraksvdraPAf4v-76" value="" style="endArrow=none;html=1;rounded=0;" edge="1" parent="1" source="Qd_EPmQraksvdraPAf4v-69" target="Qd_EPmQraksvdraPAf4v-74">
          <mxGeometry width="50" height="50" relative="1" as="geometry">
            <mxPoint x="44" y="-320" as="sourcePoint" />
            <mxPoint x="94" y="-370" as="targetPoint" />
            <Array as="points" />
          </mxGeometry>
        </mxCell>
        <mxCell id="Qd_EPmQraksvdraPAf4v-86" value="" style="verticalLabelPosition=bottom;sketch=0;aspect=fixed;html=1;verticalAlign=top;strokeColor=none;align=center;outlineConnect=0;shape=mxgraph.citrix.router;" vertex="1" parent="1">
          <mxGeometry x="1100" y="-110" width="55" height="36.5" as="geometry" />
        </mxCell>
        <mxCell id="Qd_EPmQraksvdraPAf4v-87" value="" style="verticalLabelPosition=bottom;sketch=0;aspect=fixed;html=1;verticalAlign=top;strokeColor=none;align=center;outlineConnect=0;shape=mxgraph.citrix.router;" vertex="1" parent="1">
          <mxGeometry x="1410" y="-20" width="55" height="36.5" as="geometry" />
        </mxCell>
        <mxCell id="Qd_EPmQraksvdraPAf4v-88" value="" style="verticalLabelPosition=bottom;sketch=0;aspect=fixed;html=1;verticalAlign=top;strokeColor=none;align=center;outlineConnect=0;shape=mxgraph.citrix.router;" vertex="1" parent="1">
          <mxGeometry x="685" y="100" width="55" height="36.5" as="geometry" />
        </mxCell>
        <mxCell id="Qd_EPmQraksvdraPAf4v-89" value="" style="verticalLabelPosition=bottom;sketch=0;aspect=fixed;html=1;verticalAlign=top;strokeColor=none;align=center;outlineConnect=0;shape=mxgraph.citrix.router;" vertex="1" parent="1">
          <mxGeometry x="830" y="-45" width="55" height="36.5" as="geometry" />
        </mxCell>
        <mxCell id="Qd_EPmQraksvdraPAf4v-90" value="" style="endArrow=none;html=1;rounded=0;" edge="1" parent="1" source="Qd_EPmQraksvdraPAf4v-69" target="Qd_EPmQraksvdraPAf4v-19">
          <mxGeometry width="50" height="50" relative="1" as="geometry">
            <mxPoint x="80" y="-90" as="sourcePoint" />
            <mxPoint x="2530" y="-470" as="targetPoint" />
          </mxGeometry>
        </mxCell>
        <mxCell id="Qd_EPmQraksvdraPAf4v-91" value="" style="endArrow=none;html=1;rounded=0;" edge="1" parent="1" source="Qd_EPmQraksvdraPAf4v-19" target="Qd_EPmQraksvdraPAf4v-17">
          <mxGeometry width="50" height="50" relative="1" as="geometry">
            <mxPoint x="2570" y="-210" as="sourcePoint" />
            <mxPoint x="2620" y="-260" as="targetPoint" />
          </mxGeometry>
        </mxCell>
        <mxCell id="Qd_EPmQraksvdraPAf4v-92" value="" style="endArrow=none;html=1;rounded=0;" edge="1" parent="1" source="Qd_EPmQraksvdraPAf4v-15" target="Qd_EPmQraksvdraPAf4v-13">
          <mxGeometry width="50" height="50" relative="1" as="geometry">
            <mxPoint x="2570" y="-210" as="sourcePoint" />
            <mxPoint x="2620" y="-260" as="targetPoint" />
          </mxGeometry>
        </mxCell>
        <mxCell id="Qd_EPmQraksvdraPAf4v-93" value="" style="endArrow=none;html=1;rounded=0;" edge="1" parent="1" source="Qd_EPmQraksvdraPAf4v-87" target="Qd_EPmQraksvdraPAf4v-17">
          <mxGeometry width="50" height="50" relative="1" as="geometry">
            <mxPoint x="2070" y="150" as="sourcePoint" />
            <mxPoint x="2120" y="100" as="targetPoint" />
          </mxGeometry>
        </mxCell>
        <mxCell id="Qd_EPmQraksvdraPAf4v-94" value="" style="endArrow=none;html=1;rounded=0;" edge="1" parent="1" source="Qd_EPmQraksvdraPAf4v-86" target="Qd_EPmQraksvdraPAf4v-87">
          <mxGeometry width="50" height="50" relative="1" as="geometry">
            <mxPoint x="1480" y="150" as="sourcePoint" />
            <mxPoint x="1530" y="100" as="targetPoint" />
          </mxGeometry>
        </mxCell>
        <mxCell id="Qd_EPmQraksvdraPAf4v-95" value="" style="endArrow=none;html=1;rounded=0;" edge="1" parent="1" source="Qd_EPmQraksvdraPAf4v-89" target="Qd_EPmQraksvdraPAf4v-86">
          <mxGeometry width="50" height="50" relative="1" as="geometry">
            <mxPoint x="1030" y="150" as="sourcePoint" />
            <mxPoint x="1080" y="100" as="targetPoint" />
          </mxGeometry>
        </mxCell>
        <mxCell id="Qd_EPmQraksvdraPAf4v-96" value="" style="endArrow=none;html=1;rounded=0;" edge="1" parent="1" source="Qd_EPmQraksvdraPAf4v-89" target="Qd_EPmQraksvdraPAf4v-59">
          <mxGeometry width="50" height="50" relative="1" as="geometry">
            <mxPoint x="1030" y="150" as="sourcePoint" />
            <mxPoint x="1080" y="100" as="targetPoint" />
          </mxGeometry>
        </mxCell>
        <mxCell id="Qd_EPmQraksvdraPAf4v-97" value="" style="endArrow=none;html=1;rounded=0;" edge="1" parent="1" source="Qd_EPmQraksvdraPAf4v-55" target="Qd_EPmQraksvdraPAf4v-89">
          <mxGeometry width="50" height="50" relative="1" as="geometry">
            <mxPoint x="1030" y="150" as="sourcePoint" />
            <mxPoint x="1080" y="100" as="targetPoint" />
          </mxGeometry>
        </mxCell>
        <mxCell id="Qd_EPmQraksvdraPAf4v-98" value="" style="endArrow=none;html=1;rounded=0;" edge="1" parent="1" source="Qd_EPmQraksvdraPAf4v-57" target="Qd_EPmQraksvdraPAf4v-55">
          <mxGeometry width="50" height="50" relative="1" as="geometry">
            <mxPoint x="1030" y="150" as="sourcePoint" />
            <mxPoint x="1080" y="100" as="targetPoint" />
          </mxGeometry>
        </mxCell>
        <mxCell id="Qd_EPmQraksvdraPAf4v-99" value="" style="endArrow=none;html=1;rounded=0;" edge="1" parent="1" source="Qd_EPmQraksvdraPAf4v-88" target="Qd_EPmQraksvdraPAf4v-55">
          <mxGeometry width="50" height="50" relative="1" as="geometry">
            <mxPoint x="1030" y="150" as="sourcePoint" />
            <mxPoint x="1080" y="100" as="targetPoint" />
          </mxGeometry>
        </mxCell>
        <mxCell id="Qd_EPmQraksvdraPAf4v-100" value="" style="endArrow=none;html=1;rounded=0;" edge="1" parent="1" source="Qd_EPmQraksvdraPAf4v-59" target="Qd_EPmQraksvdraPAf4v-15">
          <mxGeometry width="50" height="50" relative="1" as="geometry">
            <mxPoint x="1030" y="150" as="sourcePoint" />
            <mxPoint x="1680" y="180" as="targetPoint" />
          </mxGeometry>
        </mxCell>
        <mxCell id="Qd_EPmQraksvdraPAf4v-101" value="" style="endArrow=none;html=1;rounded=0;startArrow=none;" edge="1" parent="1" source="Qd_EPmQraksvdraPAf4v-109" target="Qd_EPmQraksvdraPAf4v-69">
          <mxGeometry width="50" height="50" relative="1" as="geometry">
            <mxPoint x="600" y="150" as="sourcePoint" />
            <mxPoint x="-100" y="-300" as="targetPoint" />
          </mxGeometry>
        </mxCell>
        <mxCell id="Qd_EPmQraksvdraPAf4v-102" value="" style="endArrow=none;html=1;rounded=0;" edge="1" parent="1" source="Qd_EPmQraksvdraPAf4v-51" target="Qd_EPmQraksvdraPAf4v-49">
          <mxGeometry width="50" height="50" relative="1" as="geometry">
            <mxPoint x="1060" y="670" as="sourcePoint" />
            <mxPoint x="1110" y="620" as="targetPoint" />
          </mxGeometry>
        </mxCell>
        <mxCell id="Qd_EPmQraksvdraPAf4v-103" value="" style="endArrow=none;html=1;rounded=0;" edge="1" parent="1" source="Qd_EPmQraksvdraPAf4v-53" target="Qd_EPmQraksvdraPAf4v-55">
          <mxGeometry width="50" height="50" relative="1" as="geometry">
            <mxPoint x="1060" y="670" as="sourcePoint" />
            <mxPoint x="1110" y="620" as="targetPoint" />
          </mxGeometry>
        </mxCell>
        <mxCell id="Qd_EPmQraksvdraPAf4v-104" value="" style="endArrow=none;html=1;rounded=0;entryX=0.75;entryY=0;entryDx=0;entryDy=0;" edge="1" parent="1" source="Qd_EPmQraksvdraPAf4v-49" target="Qd_EPmQraksvdraPAf4v-54">
          <mxGeometry width="50" height="50" relative="1" as="geometry">
            <mxPoint x="1060" y="670" as="sourcePoint" />
            <mxPoint x="1110" y="620" as="targetPoint" />
          </mxGeometry>
        </mxCell>
        <mxCell id="Qd_EPmQraksvdraPAf4v-105" value="" style="endArrow=none;html=1;rounded=0;" edge="1" parent="1" source="Qd_EPmQraksvdraPAf4v-47" target="Qd_EPmQraksvdraPAf4v-49">
          <mxGeometry width="50" height="50" relative="1" as="geometry">
            <mxPoint x="1060" y="920" as="sourcePoint" />
            <mxPoint x="1110" y="870" as="targetPoint" />
          </mxGeometry>
        </mxCell>
        <mxCell id="Qd_EPmQraksvdraPAf4v-106" value="" style="endArrow=none;html=1;rounded=0;" edge="1" parent="1" source="Qd_EPmQraksvdraPAf4v-51" target="Qd_EPmQraksvdraPAf4v-87">
          <mxGeometry width="50" height="50" relative="1" as="geometry">
            <mxPoint x="1060" y="530" as="sourcePoint" />
            <mxPoint x="1110" y="480" as="targetPoint" />
          </mxGeometry>
        </mxCell>
        <mxCell id="Qd_EPmQraksvdraPAf4v-107" value="TKY(R1" style="text;strokeColor=none;align=center;fillColor=none;html=1;verticalAlign=middle;whiteSpace=wrap;rounded=0;" vertex="1" parent="1">
          <mxGeometry x="1407.5" y="16.5" width="60" height="30" as="geometry" />
        </mxCell>
        <mxCell id="Qd_EPmQraksvdraPAf4v-108" value="SEO" style="text;strokeColor=none;align=center;fillColor=none;html=1;verticalAlign=middle;whiteSpace=wrap;rounded=0;" vertex="1" parent="1">
          <mxGeometry x="1097.5" y="-78.5" width="60" height="30" as="geometry" />
        </mxCell>
        <mxCell id="Qd_EPmQraksvdraPAf4v-110" value="" style="endArrow=none;html=1;rounded=0;" edge="1" parent="1" source="Qd_EPmQraksvdraPAf4v-59" target="Qd_EPmQraksvdraPAf4v-109">
          <mxGeometry width="50" height="50" relative="1" as="geometry">
            <mxPoint x="870" y="251.3419064307468" as="sourcePoint" />
            <mxPoint x="-345.9300000000003" y="-496.26021042968887" as="targetPoint" />
          </mxGeometry>
        </mxCell>
        <mxCell id="Qd_EPmQraksvdraPAf4v-109" value="&lt;div&gt;CGO&lt;/div&gt;&lt;div&gt;&lt;br&gt;&lt;/div&gt;" style="text;strokeColor=none;align=center;fillColor=none;html=1;verticalAlign=middle;whiteSpace=wrap;rounded=0;" vertex="1" parent="1">
          <mxGeometry x="682.5" y="130" width="60" height="30" as="geometry" />
        </mxCell>
        <mxCell id="Qd_EPmQraksvdraPAf4v-111" value="Dezhou" style="text;strokeColor=none;align=center;fillColor=none;html=1;verticalAlign=middle;whiteSpace=wrap;rounded=0;" vertex="1" parent="1">
          <mxGeometry x="825" y="-13.5" width="60" height="30" as="geometry" />
        </mxCell>
        <mxCell id="Qd_EPmQraksvdraPAf4v-112" value="" style="endArrow=none;html=1;rounded=0;" edge="1" parent="1" source="Qd_EPmQraksvdraPAf4v-49" target="Qd_EPmQraksvdraPAf4v-86">
          <mxGeometry width="50" height="50" relative="1" as="geometry">
            <mxPoint x="1060" y="240" as="sourcePoint" />
            <mxPoint x="1110" y="190" as="targetPoint" />
          </mxGeometry>
        </mxCell>
        <mxCell id="Qd_EPmQraksvdraPAf4v-113" value="" style="endArrow=none;html=1;rounded=0;" edge="1" parent="1" source="Qd_EPmQraksvdraPAf4v-69" target="Qd_EPmQraksvdraPAf4v-47">
          <mxGeometry width="50" height="50" relative="1" as="geometry">
            <mxPoint x="-240" y="-140" as="sourcePoint" />
            <mxPoint x="410" y="330" as="targetPoint" />
          </mxGeometry>
        </mxCell>
      </root>
    </mxGraphModel>
  </diagram>
</mxfile>
